<mxfile host="app.diagrams.net" agent="Mozilla/5.0 (Windows NT 10.0; Win64; x64) AppleWebKit/537.36 (KHTML, like Gecko) Chrome/136.0.0.0 Safari/537.36" version="27.0.6">
  <diagram name="Page-1" id="qZir8afrdWR26OkXhCDN">
    <mxGraphModel dx="786" dy="417" grid="1" gridSize="10" guides="1" tooltips="1" connect="1" arrows="1" fold="1" page="1" pageScale="1" pageWidth="827" pageHeight="1169" math="0" shadow="0">
      <root>
        <mxCell id="0" />
        <mxCell id="1" parent="0" />
        <mxCell id="7g-bt5lcissooJmc7fK5-17" value="" style="rounded=0;whiteSpace=wrap;html=1;fillColor=none;" parent="1" vertex="1">
          <mxGeometry x="60" y="360" width="130" height="160" as="geometry" />
        </mxCell>
        <mxCell id="7g-bt5lcissooJmc7fK5-5" value="" style="rounded=0;whiteSpace=wrap;html=1;fillColor=none;" parent="1" vertex="1">
          <mxGeometry x="60" y="110" width="330" height="160" as="geometry" />
        </mxCell>
        <mxCell id="7g-bt5lcissooJmc7fK5-2" value="PowerBi&amp;nbsp;&lt;div&gt;Service&lt;/div&gt;&lt;div&gt;&lt;br&gt;Gateway Konfig&lt;/div&gt;" style="whiteSpace=wrap;html=1;aspect=fixed;" parent="1" vertex="1">
          <mxGeometry x="570" y="150" width="80" height="80" as="geometry" />
        </mxCell>
        <mxCell id="7g-bt5lcissooJmc7fK5-1" value="VM&lt;div&gt;data gateway&lt;/div&gt;" style="whiteSpace=wrap;html=1;aspect=fixed;" parent="1" vertex="1">
          <mxGeometry x="290" y="150" width="80" height="80" as="geometry" />
        </mxCell>
        <mxCell id="7g-bt5lcissooJmc7fK5-9" style="edgeStyle=orthogonalEdgeStyle;rounded=0;orthogonalLoop=1;jettySize=auto;html=1;" parent="1" source="7g-bt5lcissooJmc7fK5-3" target="7g-bt5lcissooJmc7fK5-1" edge="1">
          <mxGeometry relative="1" as="geometry" />
        </mxCell>
        <mxCell id="7g-bt5lcissooJmc7fK5-3" value="Azure&lt;br&gt;DB" style="shape=cylinder3;whiteSpace=wrap;html=1;boundedLbl=1;backgroundOutline=1;size=15;" parent="1" vertex="1">
          <mxGeometry x="80" y="150" width="60" height="80" as="geometry" />
        </mxCell>
        <mxCell id="7g-bt5lcissooJmc7fK5-6" value="VNet" style="text;html=1;align=center;verticalAlign=middle;resizable=0;points=[];autosize=1;strokeColor=none;fillColor=none;" parent="1" vertex="1">
          <mxGeometry x="60" y="80" width="50" height="30" as="geometry" />
        </mxCell>
        <mxCell id="7g-bt5lcissooJmc7fK5-7" value="" style="endArrow=classic;startArrow=classic;html=1;rounded=0;" parent="1" edge="1">
          <mxGeometry width="50" height="50" relative="1" as="geometry">
            <mxPoint x="400" y="200" as="sourcePoint" />
            <mxPoint x="550" y="200" as="targetPoint" />
          </mxGeometry>
        </mxCell>
        <mxCell id="7g-bt5lcissooJmc7fK5-10" value="" style="rounded=0;whiteSpace=wrap;html=1;fillColor=none;" parent="1" vertex="1">
          <mxGeometry x="250" y="370" width="130" height="160" as="geometry" />
        </mxCell>
        <mxCell id="7g-bt5lcissooJmc7fK5-11" value="" style="endArrow=none;html=1;rounded=0;" parent="1" edge="1">
          <mxGeometry width="50" height="50" relative="1" as="geometry">
            <mxPoint x="40" y="310" as="sourcePoint" />
            <mxPoint x="800" y="310" as="targetPoint" />
          </mxGeometry>
        </mxCell>
        <mxCell id="7g-bt5lcissooJmc7fK5-19" style="edgeStyle=orthogonalEdgeStyle;rounded=0;orthogonalLoop=1;jettySize=auto;html=1;" parent="1" source="7g-bt5lcissooJmc7fK5-12" target="7g-bt5lcissooJmc7fK5-15" edge="1">
          <mxGeometry relative="1" as="geometry" />
        </mxCell>
        <mxCell id="7g-bt5lcissooJmc7fK5-12" value="PowerBi&amp;nbsp;&lt;div&gt;Service&lt;/div&gt;&lt;div&gt;&lt;br&gt;Gateway Konfig&lt;/div&gt;" style="whiteSpace=wrap;html=1;aspect=fixed;" parent="1" vertex="1">
          <mxGeometry x="570" y="360" width="80" height="80" as="geometry" />
        </mxCell>
        <mxCell id="7g-bt5lcissooJmc7fK5-13" value="PowerBi&amp;nbsp;&lt;div&gt;Service&lt;/div&gt;&lt;div&gt;&lt;br&gt;Gateway Konfig&lt;/div&gt;" style="whiteSpace=wrap;html=1;aspect=fixed;" parent="1" vertex="1">
          <mxGeometry x="570" y="680" width="80" height="80" as="geometry" />
        </mxCell>
        <mxCell id="7g-bt5lcissooJmc7fK5-14" value="" style="endArrow=none;html=1;rounded=0;" parent="1" edge="1">
          <mxGeometry width="50" height="50" relative="1" as="geometry">
            <mxPoint x="50" y="600" as="sourcePoint" />
            <mxPoint x="810" y="600" as="targetPoint" />
          </mxGeometry>
        </mxCell>
        <mxCell id="7g-bt5lcissooJmc7fK5-15" value="VM&lt;div&gt;data gateway&lt;/div&gt;" style="whiteSpace=wrap;html=1;aspect=fixed;" parent="1" vertex="1">
          <mxGeometry x="280" y="410" width="80" height="80" as="geometry" />
        </mxCell>
        <mxCell id="7g-bt5lcissooJmc7fK5-16" value="DB&lt;br&gt;server01" style="shape=cylinder3;whiteSpace=wrap;html=1;boundedLbl=1;backgroundOutline=1;size=15;" parent="1" vertex="1">
          <mxGeometry x="90" y="390" width="60" height="80" as="geometry" />
        </mxCell>
        <mxCell id="7g-bt5lcissooJmc7fK5-18" style="edgeStyle=orthogonalEdgeStyle;rounded=0;orthogonalLoop=1;jettySize=auto;html=1;entryX=1;entryY=0.5;entryDx=0;entryDy=0;entryPerimeter=0;" parent="1" source="7g-bt5lcissooJmc7fK5-15" target="7g-bt5lcissooJmc7fK5-16" edge="1">
          <mxGeometry relative="1" as="geometry" />
        </mxCell>
        <mxCell id="7g-bt5lcissooJmc7fK5-20" value="" style="rounded=0;whiteSpace=wrap;html=1;fillColor=none;" parent="1" vertex="1">
          <mxGeometry x="80" y="690" width="330" height="160" as="geometry" />
        </mxCell>
        <mxCell id="7g-bt5lcissooJmc7fK5-21" value="VM&lt;div&gt;data gateway&lt;/div&gt;" style="whiteSpace=wrap;html=1;aspect=fixed;" parent="1" vertex="1">
          <mxGeometry x="310" y="730" width="80" height="80" as="geometry" />
        </mxCell>
        <mxCell id="7g-bt5lcissooJmc7fK5-22" style="edgeStyle=orthogonalEdgeStyle;rounded=0;orthogonalLoop=1;jettySize=auto;html=1;" parent="1" source="7g-bt5lcissooJmc7fK5-23" target="7g-bt5lcissooJmc7fK5-21" edge="1">
          <mxGeometry relative="1" as="geometry" />
        </mxCell>
        <mxCell id="7g-bt5lcissooJmc7fK5-23" value="&lt;br&gt;DB" style="shape=cylinder3;whiteSpace=wrap;html=1;boundedLbl=1;backgroundOutline=1;size=15;" parent="1" vertex="1">
          <mxGeometry x="100" y="730" width="60" height="80" as="geometry" />
        </mxCell>
        <mxCell id="7g-bt5lcissooJmc7fK5-24" value="helsana onprem" style="text;html=1;align=center;verticalAlign=middle;resizable=0;points=[];autosize=1;strokeColor=none;fillColor=none;" parent="1" vertex="1">
          <mxGeometry x="50" y="660" width="110" height="30" as="geometry" />
        </mxCell>
        <mxCell id="7g-bt5lcissooJmc7fK5-25" value="Azure" style="text;html=1;align=center;verticalAlign=middle;resizable=0;points=[];autosize=1;strokeColor=none;fillColor=none;" parent="1" vertex="1">
          <mxGeometry x="250" y="340" width="50" height="30" as="geometry" />
        </mxCell>
        <mxCell id="7g-bt5lcissooJmc7fK5-27" style="edgeStyle=orthogonalEdgeStyle;rounded=0;orthogonalLoop=1;jettySize=auto;html=1;entryX=0;entryY=0.5;entryDx=0;entryDy=0;endArrow=none;startFill=1;startArrow=blockThin;" parent="1" source="7g-bt5lcissooJmc7fK5-21" target="7g-bt5lcissooJmc7fK5-13" edge="1">
          <mxGeometry relative="1" as="geometry" />
        </mxCell>
        <mxCell id="7g-bt5lcissooJmc7fK5-28" value="" style="endArrow=none;html=1;rounded=0;" parent="1" edge="1">
          <mxGeometry width="50" height="50" relative="1" as="geometry">
            <mxPoint x="34" y="880" as="sourcePoint" />
            <mxPoint x="794" y="880" as="targetPoint" />
          </mxGeometry>
        </mxCell>
        <mxCell id="7g-bt5lcissooJmc7fK5-29" value="PowerBi&amp;nbsp;&lt;div&gt;Service&lt;/div&gt;&lt;div&gt;&lt;br&gt;Gateway Konfig&lt;/div&gt;" style="whiteSpace=wrap;html=1;aspect=fixed;" parent="1" vertex="1">
          <mxGeometry x="570" y="940" width="80" height="80" as="geometry" />
        </mxCell>
        <mxCell id="7g-bt5lcissooJmc7fK5-30" value="" style="rounded=0;whiteSpace=wrap;html=1;fillColor=none;" parent="1" vertex="1">
          <mxGeometry x="80" y="950" width="330" height="160" as="geometry" />
        </mxCell>
        <mxCell id="7g-bt5lcissooJmc7fK5-31" value="VM&lt;div&gt;data gateway&lt;/div&gt;" style="whiteSpace=wrap;html=1;aspect=fixed;" parent="1" vertex="1">
          <mxGeometry x="310" y="990" width="80" height="80" as="geometry" />
        </mxCell>
        <mxCell id="7g-bt5lcissooJmc7fK5-32" style="edgeStyle=orthogonalEdgeStyle;rounded=0;orthogonalLoop=1;jettySize=auto;html=1;" parent="1" source="7g-bt5lcissooJmc7fK5-33" target="7g-bt5lcissooJmc7fK5-31" edge="1">
          <mxGeometry relative="1" as="geometry" />
        </mxCell>
        <mxCell id="7g-bt5lcissooJmc7fK5-33" value="&lt;br&gt;DB" style="shape=cylinder3;whiteSpace=wrap;html=1;boundedLbl=1;backgroundOutline=1;size=15;" parent="1" vertex="1">
          <mxGeometry x="100" y="990" width="60" height="80" as="geometry" />
        </mxCell>
        <mxCell id="7g-bt5lcissooJmc7fK5-34" value="helsana onprem" style="text;html=1;align=center;verticalAlign=middle;resizable=0;points=[];autosize=1;strokeColor=none;fillColor=none;" parent="1" vertex="1">
          <mxGeometry x="50" y="920" width="110" height="30" as="geometry" />
        </mxCell>
        <mxCell id="7g-bt5lcissooJmc7fK5-35" style="edgeStyle=orthogonalEdgeStyle;rounded=0;orthogonalLoop=1;jettySize=auto;html=1;entryX=0;entryY=0.5;entryDx=0;entryDy=0;endArrow=none;startFill=1;startArrow=blockThin;" parent="1" source="7g-bt5lcissooJmc7fK5-31" target="7g-bt5lcissooJmc7fK5-29" edge="1">
          <mxGeometry relative="1" as="geometry" />
        </mxCell>
        <mxCell id="7g-bt5lcissooJmc7fK5-36" value="" style="rounded=0;whiteSpace=wrap;html=1;fillColor=none;" parent="1" vertex="1">
          <mxGeometry x="410" y="930" width="290" height="160" as="geometry" />
        </mxCell>
        <mxCell id="7g-bt5lcissooJmc7fK5-37" value="VNet" style="text;html=1;align=center;verticalAlign=middle;resizable=0;points=[];autosize=1;strokeColor=none;fillColor=none;" parent="1" vertex="1">
          <mxGeometry x="540" y="900" width="50" height="30" as="geometry" />
        </mxCell>
        <mxCell id="7g-bt5lcissooJmc7fK5-38" value="" style="shape=flexArrow;endArrow=classic;html=1;rounded=0;fillColor=#d5e8d4;strokeColor=#82b366;" parent="1" edge="1">
          <mxGeometry width="50" height="50" relative="1" as="geometry">
            <mxPoint x="440" y="688.89" as="sourcePoint" />
            <mxPoint x="540" y="688.89" as="targetPoint" />
          </mxGeometry>
        </mxCell>
        <mxCell id="7g-bt5lcissooJmc7fK5-39" value="Outbound call" style="text;html=1;align=center;verticalAlign=middle;resizable=0;points=[];autosize=1;strokeColor=none;fillColor=none;" parent="1" vertex="1">
          <mxGeometry x="410" y="648" width="100" height="30" as="geometry" />
        </mxCell>
        <mxCell id="7g-bt5lcissooJmc7fK5-40" value="helsana onprem" style="text;html=1;align=center;verticalAlign=middle;resizable=0;points=[];autosize=1;strokeColor=none;fillColor=none;" parent="1" vertex="1">
          <mxGeometry x="30" y="330" width="110" height="30" as="geometry" />
        </mxCell>
        <mxCell id="7g-bt5lcissooJmc7fK5-41" value="server01" style="text;html=1;align=center;verticalAlign=middle;resizable=0;points=[];autosize=1;strokeColor=none;fillColor=none;" parent="1" vertex="1">
          <mxGeometry x="570" y="450" width="70" height="30" as="geometry" />
        </mxCell>
      </root>
    </mxGraphModel>
  </diagram>
</mxfile>
